<mxfile host="app.diagrams.net" modified="2020-04-07T18:31:52.558Z" agent="5.0 (Macintosh; Intel Mac OS X 10_15_2) AppleWebKit/537.36 (KHTML, like Gecko) Chrome/80.0.3987.149 Safari/537.36" etag="JeLAxTruZTKNsPK8tqJH" version="12.9.6" type="github">
  <diagram id="jVwcMJvdMiHzK8eNGnPZ" name="Page-1">
    <mxGraphModel dx="946" dy="476" grid="1" gridSize="10" guides="1" tooltips="1" connect="1" arrows="1" fold="1" page="1" pageScale="1" pageWidth="827" pageHeight="1169" math="0" shadow="0">
      <root>
        <mxCell id="0" />
        <mxCell id="1" parent="0" />
        <mxCell id="kwweEvwt5vz0yLyzBCv6-29" value="" style="rounded=0;whiteSpace=wrap;html=1;" vertex="1" parent="1">
          <mxGeometry x="600" y="400" width="310" height="40" as="geometry" />
        </mxCell>
        <mxCell id="kwweEvwt5vz0yLyzBCv6-19" value="" style="rounded=0;whiteSpace=wrap;html=1;" vertex="1" parent="1">
          <mxGeometry x="305" y="285" width="220" height="30" as="geometry" />
        </mxCell>
        <mxCell id="kwweEvwt5vz0yLyzBCv6-1" value="&lt;b&gt;&lt;font style=&quot;font-size: 14px&quot;&gt;Операционные зоны склада&lt;/font&gt;&lt;/b&gt;" style="rounded=0;whiteSpace=wrap;html=1;" vertex="1" parent="1">
          <mxGeometry x="220" y="10" width="290" height="60" as="geometry" />
        </mxCell>
        <mxCell id="kwweEvwt5vz0yLyzBCv6-2" value="&lt;b&gt;Зона приемки&lt;/b&gt;" style="rounded=0;whiteSpace=wrap;html=1;fillColor=#dae8fc;strokeColor=#6c8ebf;" vertex="1" parent="1">
          <mxGeometry x="40" y="140" width="120" height="60" as="geometry" />
        </mxCell>
        <mxCell id="kwweEvwt5vz0yLyzBCv6-3" value="&lt;b&gt;Зона отгрузки&lt;/b&gt;" style="rounded=0;whiteSpace=wrap;html=1;fillColor=#dae8fc;strokeColor=#6c8ebf;" vertex="1" parent="1">
          <mxGeometry x="305" y="140" width="120" height="60" as="geometry" />
        </mxCell>
        <mxCell id="kwweEvwt5vz0yLyzBCv6-4" value="&lt;b&gt;Зона хранения&lt;/b&gt;" style="rounded=0;whiteSpace=wrap;html=1;" vertex="1" parent="1">
          <mxGeometry x="600" y="140" width="120" height="60" as="geometry" />
        </mxCell>
        <mxCell id="kwweEvwt5vz0yLyzBCv6-5" value="" style="endArrow=classic;html=1;exitX=0;exitY=0.5;exitDx=0;exitDy=0;entryX=0.4;entryY=0.017;entryDx=0;entryDy=0;entryPerimeter=0;" edge="1" parent="1" source="kwweEvwt5vz0yLyzBCv6-1" target="kwweEvwt5vz0yLyzBCv6-2">
          <mxGeometry width="50" height="50" relative="1" as="geometry">
            <mxPoint x="50" y="90" as="sourcePoint" />
            <mxPoint x="100" y="40" as="targetPoint" />
            <Array as="points">
              <mxPoint x="88" y="40" />
            </Array>
          </mxGeometry>
        </mxCell>
        <mxCell id="kwweEvwt5vz0yLyzBCv6-6" value="" style="endArrow=classic;html=1;exitX=0.5;exitY=1;exitDx=0;exitDy=0;entryX=0.5;entryY=0;entryDx=0;entryDy=0;" edge="1" parent="1" source="kwweEvwt5vz0yLyzBCv6-1" target="kwweEvwt5vz0yLyzBCv6-3">
          <mxGeometry width="50" height="50" relative="1" as="geometry">
            <mxPoint x="330" y="140" as="sourcePoint" />
            <mxPoint x="380" y="90" as="targetPoint" />
          </mxGeometry>
        </mxCell>
        <mxCell id="kwweEvwt5vz0yLyzBCv6-7" value="" style="endArrow=classic;html=1;exitX=1;exitY=0.5;exitDx=0;exitDy=0;entryX=0.5;entryY=0;entryDx=0;entryDy=0;" edge="1" parent="1" source="kwweEvwt5vz0yLyzBCv6-1" target="kwweEvwt5vz0yLyzBCv6-4">
          <mxGeometry width="50" height="50" relative="1" as="geometry">
            <mxPoint x="580" y="100" as="sourcePoint" />
            <mxPoint x="630" y="50" as="targetPoint" />
            <Array as="points">
              <mxPoint x="660" y="40" />
            </Array>
          </mxGeometry>
        </mxCell>
        <mxCell id="kwweEvwt5vz0yLyzBCv6-8" value="среднесуточный обьем входящего грузооборота" style="rounded=0;whiteSpace=wrap;html=1;fillColor=#ffe6cc;strokeColor=#d79b00;" vertex="1" parent="1">
          <mxGeometry x="40" y="230" width="160" height="30" as="geometry" />
        </mxCell>
        <mxCell id="kwweEvwt5vz0yLyzBCv6-9" value="" style="endArrow=none;html=1;exitX=0;exitY=1;exitDx=0;exitDy=0;entryX=0;entryY=1;entryDx=0;entryDy=0;" edge="1" parent="1" source="kwweEvwt5vz0yLyzBCv6-2" target="kwweEvwt5vz0yLyzBCv6-15">
          <mxGeometry width="50" height="50" relative="1" as="geometry">
            <mxPoint x="10" y="270" as="sourcePoint" />
            <mxPoint x="40" y="530" as="targetPoint" />
          </mxGeometry>
        </mxCell>
        <mxCell id="kwweEvwt5vz0yLyzBCv6-10" value="неравномерность входящего грузооборота" style="rounded=0;whiteSpace=wrap;html=1;" vertex="1" parent="1">
          <mxGeometry x="40" y="280" width="140" height="40" as="geometry" />
        </mxCell>
        <mxCell id="kwweEvwt5vz0yLyzBCv6-13" value="интервал работ по разгрузке и приемке автомобилей" style="rounded=0;whiteSpace=wrap;html=1;fillColor=#ffe6cc;strokeColor=#d79b00;" vertex="1" parent="1">
          <mxGeometry x="40" y="340" width="170" height="40" as="geometry" />
        </mxCell>
        <mxCell id="kwweEvwt5vz0yLyzBCv6-14" value="среднее количество мест на прицепе автовоза" style="rounded=0;whiteSpace=wrap;html=1;" vertex="1" parent="1">
          <mxGeometry x="40" y="400" width="160" height="40" as="geometry" />
        </mxCell>
        <mxCell id="kwweEvwt5vz0yLyzBCv6-15" value="площадь занимаемая автомобилем" style="rounded=0;whiteSpace=wrap;html=1;" vertex="1" parent="1">
          <mxGeometry x="40" y="460" width="150" height="30" as="geometry" />
        </mxCell>
        <mxCell id="kwweEvwt5vz0yLyzBCv6-16" value="" style="endArrow=none;html=1;exitX=0;exitY=1;exitDx=0;exitDy=0;entryX=0;entryY=1;entryDx=0;entryDy=0;" edge="1" parent="1" source="kwweEvwt5vz0yLyzBCv6-3" target="kwweEvwt5vz0yLyzBCv6-23">
          <mxGeometry width="50" height="50" relative="1" as="geometry">
            <mxPoint x="300" y="360" as="sourcePoint" />
            <mxPoint x="305" y="460" as="targetPoint" />
          </mxGeometry>
        </mxCell>
        <mxCell id="kwweEvwt5vz0yLyzBCv6-17" value="неравномерность исходящего грузооборота" style="rounded=0;whiteSpace=wrap;html=1;" vertex="1" parent="1">
          <mxGeometry x="305" y="225" width="165" height="40" as="geometry" />
        </mxCell>
        <mxCell id="kwweEvwt5vz0yLyzBCv6-18" value="интервал работ по отгрузке заказов" style="text;html=1;align=center;verticalAlign=middle;resizable=0;points=[];autosize=1;" vertex="1" parent="1">
          <mxGeometry x="304" y="295" width="220" height="20" as="geometry" />
        </mxCell>
        <mxCell id="kwweEvwt5vz0yLyzBCv6-22" value="время загрузки автомобиля" style="rounded=0;whiteSpace=wrap;html=1;" vertex="1" parent="1">
          <mxGeometry x="304" y="330" width="160" height="40" as="geometry" />
        </mxCell>
        <mxCell id="kwweEvwt5vz0yLyzBCv6-23" value="среднее количество заказов в прицепе автовоза" style="rounded=0;whiteSpace=wrap;html=1;fillColor=#ffe6cc;strokeColor=#d79b00;" vertex="1" parent="1">
          <mxGeometry x="304" y="400" width="192" height="40" as="geometry" />
        </mxCell>
        <mxCell id="kwweEvwt5vz0yLyzBCv6-24" value="" style="endArrow=none;html=1;exitX=0;exitY=1;exitDx=0;exitDy=0;" edge="1" parent="1" source="kwweEvwt5vz0yLyzBCv6-4">
          <mxGeometry width="50" height="50" relative="1" as="geometry">
            <mxPoint x="630" y="340" as="sourcePoint" />
            <mxPoint x="600" y="620" as="targetPoint" />
          </mxGeometry>
        </mxCell>
        <mxCell id="kwweEvwt5vz0yLyzBCv6-25" value="к-во наименований на складе" style="rounded=0;whiteSpace=wrap;html=1;" vertex="1" parent="1">
          <mxGeometry x="600" y="220" width="180" height="40" as="geometry" />
        </mxCell>
        <mxCell id="kwweEvwt5vz0yLyzBCv6-26" value="среднее время хранения автомобиля на складе" style="rounded=0;whiteSpace=wrap;html=1;" vertex="1" parent="1">
          <mxGeometry x="600" y="285" width="210" height="35" as="geometry" />
        </mxCell>
        <mxCell id="kwweEvwt5vz0yLyzBCv6-27" value="неравномерность хранения авто на складе" style="rounded=0;whiteSpace=wrap;html=1;" vertex="1" parent="1">
          <mxGeometry x="600" y="350" width="160" height="40" as="geometry" />
        </mxCell>
        <mxCell id="kwweEvwt5vz0yLyzBCv6-28" value="площадь которое занимает место для автомобиля" style="text;html=1;align=center;verticalAlign=middle;resizable=0;points=[];autosize=1;" vertex="1" parent="1">
          <mxGeometry x="610" y="410" width="300" height="20" as="geometry" />
        </mxCell>
        <mxCell id="kwweEvwt5vz0yLyzBCv6-30" value="вариация габаритов автомобиля" style="rounded=0;whiteSpace=wrap;html=1;" vertex="1" parent="1">
          <mxGeometry x="600" y="460" width="220" height="40" as="geometry" />
        </mxCell>
        <mxCell id="kwweEvwt5vz0yLyzBCv6-31" value="система хранения" style="rounded=0;whiteSpace=wrap;html=1;" vertex="1" parent="1">
          <mxGeometry x="600" y="525" width="130" height="35" as="geometry" />
        </mxCell>
        <mxCell id="kwweEvwt5vz0yLyzBCv6-32" value="специальные требования к хранению" style="rounded=0;whiteSpace=wrap;html=1;" vertex="1" parent="1">
          <mxGeometry x="600" y="585" width="120" height="45" as="geometry" />
        </mxCell>
      </root>
    </mxGraphModel>
  </diagram>
</mxfile>
